<svg width="100%" height="72" viewBox="0 0 488 72" fill="none" xmlns="http://www.w3.org/2000/svg" role="img"><path fill-rule="evenodd" clip-rule="evenodd" d="M488 0H392V72H488V0ZM415.938 49H429.594L432.25 58.5H441.5L426.875 13H418.906L404 58.5H413.25L415.938 49ZM427.531 41.5312H418.094L422.875 24.7812L427.531 41.5312ZM476 43.1562L475.969 13H467.25L467.219 43.1562C467.198 46.0938 466.615 48.3125 465.469 49.8125C464.344 51.3125 462.708 52.0625 460.562 52.0625C458.542 52.0625 457 51.3125 455.938 49.8125C454.896 48.3125 454.365 46.0938 454.344 43.1562L454.312 13H445.531L445.5 43.1562C445.5 45.6979 445.854 47.9688 446.562 49.9688C447.292 51.9479 448.312 53.6146 449.625 54.9688C450.938 56.3229 452.51 57.3542 454.344 58.0625C456.198 58.7708 458.271 59.125 460.562 59.125C463 59.125 465.167 58.7708 467.062 58.0625C468.979 57.3542 470.594 56.3229 471.906 54.9688C473.24 53.5938 474.25 51.9167 474.938 49.9375C475.646 47.9583 476 45.6979 476 43.1562Z" fill="#0201D3"></path><path d="M97.9375 40.9336H89.9805V57.1758H84.9492V17.3633H96.625C98.4844 17.3997 100.234 17.6641 101.875 18.1562C103.516 18.6484 104.947 19.3867 106.168 20.3711C107.408 21.3555 108.374 22.5951 109.066 24.0898C109.777 25.5664 110.133 27.3073 110.133 29.3125C110.133 30.6068 109.941 31.7917 109.559 32.8672C109.194 33.9427 108.684 34.918 108.027 35.793C107.371 36.668 106.587 37.4427 105.676 38.1172C104.764 38.7917 103.762 39.3659 102.668 39.8398L111.117 56.8477L111.09 57.1758H105.758L97.9375 40.9336ZM89.9805 36.7773H96.7617C97.8919 36.7591 98.9583 36.5859 99.9609 36.2578C100.964 35.9115 101.839 35.4193 102.586 34.7812C103.352 34.1432 103.953 33.3685 104.391 32.457C104.828 31.5273 105.047 30.4609 105.047 29.2578C105.047 27.9818 104.837 26.8698 104.418 25.9219C103.999 24.9557 103.415 24.1536 102.668 23.5156C101.921 22.8594 101.027 22.3672 99.9883 22.0391C98.9674 21.7109 97.8464 21.5378 96.625 21.5195H89.9805V36.7773Z" fill="#0201D3"></path><path d="M130.901 57.7227C128.823 57.7227 126.909 57.3672 125.159 56.6562C123.427 55.9453 121.941 54.9518 120.702 53.6758C119.462 52.3997 118.496 50.8867 117.803 49.1367C117.111 47.3867 116.764 45.4818 116.764 43.4219V42.2734C116.764 39.8854 117.147 37.7526 117.913 35.875C118.678 33.9792 119.69 32.3841 120.948 31.0898C122.224 29.7773 123.664 28.7747 125.268 28.082C126.891 27.3893 128.549 27.043 130.245 27.043C132.377 27.043 134.237 27.4167 135.823 28.1641C137.427 28.8932 138.758 29.9141 139.815 31.2266C140.872 32.5208 141.656 34.0521 142.167 35.8203C142.695 37.5885 142.96 39.5026 142.96 41.5625V43.832H121.823C121.877 45.181 122.133 46.4479 122.588 47.6328C123.062 48.8177 123.7 49.8568 124.502 50.75C125.323 51.625 126.298 52.3177 127.428 52.8281C128.558 53.3385 129.807 53.5938 131.174 53.5938C132.979 53.5938 134.583 53.2292 135.987 52.5C137.391 51.7708 138.557 50.8047 139.487 49.6016L142.577 52.0078C142.085 52.7552 141.465 53.4753 140.717 54.168C139.988 54.8424 139.141 55.444 138.174 55.9727C137.208 56.5013 136.114 56.9206 134.893 57.2305C133.672 57.5586 132.341 57.7227 130.901 57.7227ZM130.245 31.1992C129.224 31.1992 128.258 31.3906 127.346 31.7734C126.435 32.138 125.614 32.6849 124.885 33.4141C124.156 34.125 123.536 35.0091 123.026 36.0664C122.534 37.1055 122.187 38.3086 121.987 39.6758H137.901V39.293C137.846 38.3086 137.655 37.3333 137.327 36.3672C137.017 35.401 136.552 34.5352 135.932 33.7695C135.312 33.0039 134.529 32.3841 133.581 31.9102C132.651 31.4362 131.539 31.1992 130.245 31.1992Z" fill="#0201D3"></path><path d="M170.345 57.1758C170.144 56.793 169.98 56.319 169.853 55.7539C169.743 55.1706 169.661 54.569 169.607 53.9492C169.096 54.4596 168.522 54.9427 167.884 55.3984C167.264 55.8542 166.571 56.2552 165.806 56.6016C165.058 56.9479 164.256 57.2214 163.4 57.4219C162.543 57.6224 161.631 57.7227 160.665 57.7227C159.097 57.7227 157.676 57.4948 156.4 57.0391C155.142 56.5833 154.066 55.9727 153.173 55.207C152.298 54.4232 151.614 53.5026 151.122 52.4453C150.648 51.3698 150.411 50.2122 150.411 48.9727C150.411 47.3503 150.73 45.9284 151.368 44.707C152.025 43.4857 152.945 42.474 154.13 41.6719C155.315 40.8516 156.737 40.2409 158.396 39.8398C160.073 39.4388 161.941 39.2383 164.001 39.2383H169.525V36.9141C169.525 36.0208 169.36 35.2188 169.032 34.5078C168.704 33.7969 168.239 33.1953 167.638 32.7031C167.036 32.1927 166.298 31.8008 165.423 31.5273C164.566 31.2539 163.6 31.1172 162.525 31.1172C161.522 31.1172 160.62 31.2448 159.817 31.5C159.034 31.7552 158.368 32.0924 157.821 32.5117C157.275 32.931 156.846 33.4323 156.536 34.0156C156.245 34.5807 156.099 35.1732 156.099 35.793H151.013C151.031 34.7174 151.304 33.6602 151.833 32.6211C152.38 31.582 153.155 30.6523 154.157 29.832C155.178 28.9935 156.409 28.319 157.849 27.8086C159.307 27.2982 160.957 27.043 162.798 27.043C164.475 27.043 166.034 27.2526 167.474 27.6719C168.914 28.0729 170.153 28.6927 171.192 29.5312C172.25 30.3516 173.079 31.3815 173.681 32.6211C174.282 33.8607 174.583 35.3099 174.583 36.9688V50.7227C174.583 51.707 174.674 52.7552 174.857 53.8672C175.039 54.9609 175.294 55.918 175.622 56.7383V57.1758H170.345ZM161.403 53.3203C162.388 53.3203 163.308 53.1927 164.165 52.9375C165.022 52.6823 165.797 52.3451 166.489 51.9258C167.2 51.5065 167.811 51.0326 168.321 50.5039C168.832 49.957 169.233 49.3919 169.525 48.8086V42.8203H164.821C161.868 42.8203 159.571 43.2578 157.931 44.1328C156.29 45.0078 155.47 46.3841 155.47 48.2617C155.47 48.9909 155.588 49.6654 155.825 50.2852C156.081 50.9049 156.454 51.4427 156.946 51.8984C157.439 52.3359 158.058 52.6823 158.806 52.9375C159.553 53.1927 160.419 53.3203 161.403 53.3203Z" fill="#0201D3"></path><path d="M196.582 53.6211C197.493 53.6211 198.377 53.4753 199.234 53.1836C200.109 52.8919 200.884 52.4909 201.558 51.9805C202.233 51.4518 202.771 50.8411 203.172 50.1484C203.591 49.4375 203.81 48.6719 203.828 47.8516H208.613C208.595 49.1641 208.248 50.4219 207.574 51.625C206.918 52.8099 206.034 53.8581 204.922 54.7695C203.81 55.6628 202.534 56.3828 201.093 56.9297C199.653 57.4583 198.149 57.7227 196.582 57.7227C194.34 57.7227 192.38 57.3216 190.703 56.5195C189.026 55.7174 187.622 54.6419 186.492 53.293C185.38 51.9258 184.541 50.3581 183.976 48.5898C183.411 46.8034 183.129 44.9258 183.129 42.957V41.8086C183.129 39.8581 183.411 37.9896 183.976 36.2031C184.541 34.4167 185.38 32.849 186.492 31.5C187.622 30.1328 189.026 29.0482 190.703 28.2461C192.38 27.444 194.34 27.043 196.582 27.043C198.332 27.043 199.936 27.3255 201.394 27.8906C202.871 28.4375 204.138 29.194 205.195 30.1602C206.271 31.1081 207.109 32.2383 207.711 33.5508C208.312 34.8633 208.613 36.2669 208.613 37.7617H203.828C203.81 36.8685 203.609 36.0299 203.226 35.2461C202.862 34.444 202.36 33.7422 201.722 33.1406C201.084 32.5391 200.319 32.0651 199.425 31.7188C198.55 31.3724 197.603 31.1992 196.582 31.1992C195.014 31.1992 193.692 31.5182 192.617 32.1562C191.56 32.776 190.703 33.5964 190.047 34.6172C189.39 35.6198 188.916 36.75 188.625 38.0078C188.351 39.2656 188.215 40.5326 188.215 41.8086V42.957C188.215 44.2513 188.351 45.5365 188.625 46.8125C188.916 48.0703 189.381 49.2096 190.019 50.2305C190.675 51.2331 191.532 52.0534 192.59 52.6914C193.665 53.3112 194.996 53.6211 196.582 53.6211Z" fill="#0201D3"></path><path d="M229.026 20.4258V27.5898H240.291V31.5H229.026V47.5781C229.026 48.7266 229.171 49.6745 229.463 50.4219C229.755 51.1693 230.156 51.7708 230.666 52.2266C231.177 52.6641 231.76 52.974 232.416 53.1562C233.091 53.3385 233.802 53.4297 234.549 53.4297C235.096 53.4297 235.661 53.4023 236.244 53.3477C236.828 53.2747 237.393 53.1927 237.94 53.1016C238.505 53.0104 239.024 52.9193 239.498 52.8281C239.99 52.7188 240.392 52.6276 240.701 52.5547L241.412 56.1367C240.993 56.3919 240.483 56.6198 239.881 56.8203C239.28 57.0026 238.623 57.1576 237.912 57.2852C237.201 57.431 236.445 57.5404 235.643 57.6133C234.859 57.6862 234.075 57.7227 233.291 57.7227C231.979 57.7227 230.748 57.5404 229.6 57.1758C228.47 56.793 227.485 56.2005 226.647 55.3984C225.808 54.5781 225.143 53.5299 224.651 52.2539C224.177 50.9596 223.94 49.401 223.94 47.5781V31.5H216.174V27.5898H223.94V20.4258H229.026Z" fill="#0201D3"></path><path d="M275.907 45.1992C275.67 47.0404 275.196 48.7357 274.485 50.2852C273.774 51.8164 272.845 53.138 271.696 54.25C270.566 55.3438 269.217 56.2005 267.649 56.8203C266.1 57.4219 264.368 57.7227 262.454 57.7227C260.813 57.7227 259.318 57.4948 257.97 57.0391C256.639 56.5651 255.445 55.918 254.387 55.0977C253.348 54.2773 252.446 53.3112 251.68 52.1992C250.933 51.0872 250.304 49.875 249.794 48.5625C249.302 47.25 248.928 45.8737 248.673 44.4336C248.436 42.9935 248.308 41.5352 248.29 40.0586V34.5078C248.308 33.0312 248.436 31.5729 248.673 30.1328C248.928 28.6927 249.302 27.3164 249.794 26.0039C250.304 24.6914 250.933 23.4792 251.68 22.3672C252.446 21.237 253.348 20.2617 254.387 19.4414C255.445 18.6211 256.639 17.9831 257.97 17.5273C259.3 17.0534 260.795 16.8164 262.454 16.8164C264.441 16.8164 266.218 17.1263 267.786 17.7461C269.354 18.3477 270.703 19.2135 271.833 20.3438C272.963 21.4557 273.865 22.7956 274.54 24.3633C275.233 25.931 275.688 27.6628 275.907 29.5586H270.848C270.684 28.3555 270.402 27.2344 270.001 26.1953C269.6 25.1562 269.062 24.2448 268.387 23.4609C267.713 22.6771 266.884 22.0664 265.899 21.6289C264.933 21.1732 263.785 20.9453 262.454 20.9453C261.251 20.9453 260.184 21.1458 259.255 21.5469C258.343 21.9297 257.55 22.4583 256.876 23.1328C256.22 23.8073 255.664 24.5911 255.208 25.4844C254.77 26.3776 254.415 27.3255 254.141 28.3281C253.868 29.3307 253.667 30.3607 253.54 31.418C253.43 32.457 253.376 33.4688 253.376 34.4531V40.0586C253.376 41.043 253.43 42.0638 253.54 43.1211C253.667 44.1602 253.868 45.1901 254.141 46.2109C254.415 47.2135 254.77 48.1615 255.208 49.0547C255.645 49.9479 256.201 50.7409 256.876 51.4336C257.55 52.1081 258.343 52.6458 259.255 53.0469C260.166 53.4297 261.233 53.6211 262.454 53.6211C263.785 53.6211 264.933 53.4115 265.899 52.9922C266.884 52.5729 267.713 51.9896 268.387 51.2422C269.062 50.4766 269.6 49.5833 270.001 48.5625C270.402 47.5234 270.684 46.4023 270.848 45.1992H275.907Z" fill="#0201D3"></path><path d="M281.773 42.1094C281.773 39.9766 282.083 37.9987 282.702 36.1758C283.322 34.3346 284.206 32.7396 285.355 31.3906C286.522 30.0417 287.934 28.9844 289.593 28.2188C291.252 27.4349 293.12 27.043 295.199 27.043C297.295 27.043 299.173 27.4349 300.831 28.2188C302.508 28.9844 303.921 30.0417 305.07 31.3906C306.236 32.7396 307.13 34.3346 307.749 36.1758C308.369 37.9987 308.679 39.9766 308.679 42.1094V42.7109C308.679 44.8438 308.369 46.8216 307.749 48.6445C307.13 50.4674 306.236 52.0534 305.07 53.4023C303.921 54.7513 302.518 55.8086 300.859 56.5742C299.2 57.3398 297.331 57.7227 295.253 57.7227C293.157 57.7227 291.27 57.3398 289.593 56.5742C287.934 55.8086 286.522 54.7513 285.355 53.4023C284.206 52.0534 283.322 50.4674 282.702 48.6445C282.083 46.8216 281.773 44.8438 281.773 42.7109V42.1094ZM286.831 42.7109C286.831 44.1693 287.005 45.5638 287.351 46.8945C287.697 48.207 288.217 49.3646 288.91 50.3672C289.62 51.3698 290.505 52.1628 291.562 52.7461C292.619 53.3294 293.85 53.6211 295.253 53.6211C296.639 53.6211 297.851 53.3294 298.89 52.7461C299.947 52.1628 300.822 51.3698 301.515 50.3672C302.226 49.3646 302.755 48.207 303.101 46.8945C303.447 45.5638 303.62 44.1693 303.62 42.7109V42.1094C303.62 40.6693 303.438 39.293 303.074 37.9805C302.727 36.6497 302.199 35.4831 301.488 34.4805C300.795 33.4779 299.92 32.6849 298.863 32.1016C297.824 31.5 296.602 31.1992 295.199 31.1992C293.795 31.1992 292.574 31.5 291.535 32.1016C290.495 32.6849 289.62 33.4779 288.91 34.4805C288.217 35.4831 287.697 36.6497 287.351 37.9805C287.005 39.293 286.831 40.6693 286.831 42.1094V42.7109Z" fill="#0201D3"></path><path d="M320.807 27.5898L321.162 31.9648C322.238 30.4336 323.559 29.2396 325.127 28.3828C326.695 27.5078 328.445 27.0612 330.377 27.043C331.926 27.043 333.33 27.2617 334.588 27.6992C335.864 28.1367 336.948 28.8203 337.842 29.75C338.735 30.6797 339.419 31.8646 339.893 33.3047C340.385 34.7266 340.631 36.4219 340.631 38.3906V57.1758H335.572V38.5C335.572 37.1875 335.426 36.0755 335.135 35.1641C334.843 34.2526 334.406 33.5143 333.822 32.9492C333.257 32.3841 332.555 31.974 331.717 31.7188C330.896 31.4635 329.948 31.3359 328.873 31.3359C327.178 31.3359 325.683 31.7643 324.389 32.6211C323.113 33.4596 322.092 34.5716 321.326 35.957V57.1758H316.268V27.5898H320.807Z" fill="#0201D3"></path><path d="M356.887 57.1758V31.5H348.739V27.5898H356.887V25.5117C356.887 23.6159 357.161 21.957 357.707 20.5352C358.273 19.0951 359.056 17.8919 360.059 16.9258C361.08 15.9596 362.301 15.2305 363.723 14.7383C365.145 14.2461 366.731 14 368.481 14C369.684 14 370.851 14.1003 371.981 14.3008C373.129 14.5013 374.305 14.7565 375.508 15.0664L374.907 19.25C374.159 18.9948 373.284 18.776 372.282 18.5938C371.297 18.3932 370.24 18.293 369.11 18.293C366.74 18.3112 364.954 18.9128 363.75 20.0977C362.566 21.2826 361.973 23.0872 361.973 25.5117V27.5898H373.375V31.5H361.973V57.1758H356.887Z" fill="#0201D3"></path><path fill-rule="evenodd" clip-rule="evenodd" d="M16.2761 21.1967C16.6038 22.7981 17.0692 24.5262 17.6663 26.3481C20.1571 25.9068 22.8447 25.5778 25.67 25.3793C27.2544 23.032 28.8828 20.8691 30.5101 18.9327C29.2309 17.5046 27.967 16.2375 26.744 15.153C24.6426 13.2896 22.7107 12.009 21.072 11.3549C19.4183 10.6949 18.2522 10.7404 17.4764 11.1883C16.7005 11.6363 16.078 12.6234 15.8228 14.3856C15.5699 16.1318 15.713 18.4451 16.2761 21.1967ZM14.0706 21.648C14.4003 23.2591 14.8592 24.9805 15.4407 26.7833C13.5901 27.181 11.8712 27.644 10.3122 28.1637C7.5167 29.0955 5.1732 30.2299 3.50547 31.5442C1.85042 32.8485 0.705566 34.4616 0.705566 36.343C0.705566 38.2243 1.85042 39.8374 3.50547 41.1417C5.1732 42.456 7.5167 43.5904 10.3122 44.5223C11.8714 45.042 13.5906 45.5051 15.4415 45.9027C14.86 47.7054 14.4012 49.4267 14.0715 51.0376C13.4808 53.9245 13.2914 56.5213 13.5958 58.6227C13.8979 60.7082 14.7224 62.5062 16.3517 63.4469C17.981 64.3876 19.9504 64.2026 21.9075 63.4215C23.8796 62.6343 26.0337 61.172 28.2385 59.2169C29.4686 58.1262 30.7296 56.8684 31.9998 55.4639C33.27 56.8683 34.5309 58.126 35.761 59.2168C37.9657 61.1719 40.1199 62.6342 42.092 63.4213C44.0491 64.2025 46.0185 64.3874 47.6478 63.4467C49.2771 62.5061 50.1016 60.708 50.4037 58.6226C50.708 56.5211 50.5187 53.9244 49.928 51.0375C49.5984 49.4269 49.1397 47.7061 48.5584 45.9039C50.4113 45.5059 52.1323 45.0425 53.693 44.5223C56.4885 43.5904 58.832 42.456 60.4997 41.1417C62.1548 39.8374 63.2996 38.2243 63.2996 36.343C63.2996 34.4616 62.1548 32.8485 60.4997 31.5442C58.832 30.2299 56.4885 29.0955 53.693 28.1637C52.1325 27.6435 50.4118 27.1801 48.5592 26.7822C49.1405 24.9798 49.5993 23.2588 49.9289 21.6481C50.5196 18.7612 50.709 16.1645 50.4046 14.063C50.1025 11.9775 49.278 10.1795 47.6487 9.23886C46.0195 8.29821 44.05 8.48312 42.0929 9.26427C40.1208 10.0514 37.9667 11.5137 35.7619 13.4688C34.5316 14.5598 33.2703 15.8179 31.9998 17.2228C30.7293 15.8178 29.468 14.5597 28.2376 13.4687C26.0328 11.5136 23.8787 10.0513 21.9065 9.26414C19.9494 8.48299 17.98 8.29807 16.3508 9.23873C14.7215 10.1794 13.8969 11.9774 13.5949 14.0629C13.2905 16.1643 13.4798 18.7611 14.0706 21.648ZM37.2546 57.5324C36.0319 56.4483 34.7684 55.1815 33.4895 53.754C35.117 51.8175 36.7456 49.6545 38.33 47.307C41.1549 47.1087 43.8422 46.7799 46.3327 46.3389C46.9296 48.1602 47.3949 49.8879 47.7225 51.4888C48.2855 54.2403 48.4286 56.5537 48.1757 58.2999C47.9205 60.0621 47.2981 61.0492 46.5222 61.4972C45.7463 61.9451 44.5802 61.9906 42.9265 61.3305C41.2878 60.6765 39.3559 59.3958 37.2546 57.5324ZM52.9811 42.3866C51.4298 42.9037 49.6997 43.3649 47.8225 43.7588C46.9593 41.3813 45.9004 38.8895 44.6597 36.3438C45.9007 33.7975 46.9598 31.3052 47.8233 28.9273C49.7002 29.3212 51.43 29.7823 52.9811 30.2993C55.6455 31.1875 57.7205 32.2202 59.1063 33.3123C60.5048 34.4144 61.0484 35.4471 61.0484 36.343C61.0484 37.2388 60.5048 38.2715 59.1063 39.3736C57.7205 40.4657 55.6455 41.4984 52.9811 42.3866ZM45.5811 44.1848C44.9493 42.4748 44.2114 40.6986 43.3719 38.8806C42.8367 39.8944 42.2741 40.9135 41.6847 41.9343C41.0952 42.9554 40.4937 43.9526 39.8831 44.9234C41.8772 44.7415 43.7844 44.4925 45.5811 44.1848ZM45.5819 28.5013C44.9499 30.2116 44.2118 31.9884 43.372 33.8069C42.8365 32.7925 42.2735 31.7727 41.6838 30.7514C41.0943 29.7303 40.4929 28.7332 39.8823 27.7625C41.877 27.9444 43.7847 28.1935 45.5819 28.5013ZM39.7342 31.877C38.8684 30.3773 37.9782 28.9338 37.0731 27.5546C35.4273 27.4606 33.7331 27.4114 32.0026 27.4114C30.27 27.4114 28.5739 27.4607 26.9262 27.555C26.0212 28.9341 25.1311 30.3775 24.2653 31.8771C23.3992 33.3771 22.5941 34.8701 21.8521 36.3437C22.5939 37.8168 23.3987 39.3091 24.2643 40.8085C25.1302 42.3082 26.0204 43.7517 26.9255 45.1309C28.5734 45.2252 30.2697 45.2745 32.0026 45.2745C33.7334 45.2745 35.4278 45.2253 37.0739 45.1312C37.979 43.752 38.8693 42.3084 39.7351 40.8087C40.6008 39.3092 41.4057 37.8168 42.1474 36.3437C41.4054 34.87 40.6003 33.377 39.7342 31.877ZM46.3335 26.3471C43.8425 25.906 41.1547 25.5772 38.3292 25.3789C36.745 23.0317 35.1167 20.8689 33.4895 18.9327C34.7687 17.5047 36.0325 16.2376 37.2555 15.1532C39.3569 13.2898 41.2887 12.0091 42.9274 11.3551C44.5811 10.695 45.7473 10.7405 46.5231 11.1884C47.299 11.6364 47.9214 12.6235 48.1767 14.3857C48.4296 16.1319 48.2864 18.4453 47.7234 21.1968C47.3958 22.7979 46.9305 24.5256 46.3335 26.3471ZM35.4885 25.2258C34.3339 23.5899 33.1646 22.0628 31.9998 20.6608C30.8349 22.0629 29.6656 23.59 28.5109 25.226C29.6577 25.1825 30.8228 25.1602 32.0026 25.1602C33.1804 25.1602 34.3436 25.1825 35.4885 25.2258ZM16.1774 43.7577C17.0406 41.3805 18.0993 38.8891 19.3398 36.3438C18.099 33.7979 17.04 31.306 16.1767 28.9284C14.3018 29.322 12.5738 29.7828 11.0241 30.2993C8.35968 31.1875 6.28468 32.2202 4.8989 33.3123C3.50042 34.4144 2.95676 35.4471 2.95676 36.343C2.95676 37.2388 3.50042 38.2715 4.8989 39.3736C6.28468 40.4657 8.35968 41.4984 11.0241 42.3866C12.574 42.9032 14.3023 43.364 16.1774 43.7577ZM18.418 28.5022C19.0499 30.2123 19.7879 31.9887 20.6275 33.8069C21.163 32.7925 21.726 31.7728 22.3157 30.7515C22.9051 29.7306 23.5064 28.7336 24.1169 27.763C22.1224 27.9451 20.215 28.1943 18.418 28.5022ZM22.3147 41.9341C21.7254 40.9134 21.1628 39.8944 20.6276 38.8806C19.7883 40.6983 19.0505 42.4742 18.4188 44.1839C20.2153 44.4917 22.1222 44.7408 24.1162 44.9228C23.5056 43.9522 22.9042 42.9551 22.3147 41.9341ZM17.6671 46.338C20.1574 46.7792 22.8445 47.1081 25.6693 47.3065C27.2538 49.6542 28.8825 51.8174 30.5101 53.754C29.2312 55.1816 27.9676 56.4484 26.7449 57.5326C24.6435 59.396 22.7117 60.6766 21.073 61.3307C19.4193 61.9907 18.2532 61.9453 17.4773 61.4973C16.7014 61.0494 16.079 60.0622 15.8237 58.3C15.5708 56.5539 15.714 54.2405 16.277 51.489C16.6047 49.8877 17.07 48.1597 17.6671 46.338ZM31.9998 52.026C30.8347 50.6236 29.6651 49.0962 28.5102 47.4598C29.6572 47.5034 30.8225 47.5257 32.0026 47.5257C33.1807 47.5257 34.3441 47.5034 35.4892 47.4601C34.3344 49.0963 33.1649 50.6237 31.9998 52.026ZM37.1824 36.3427C37.1824 39.2041 34.8628 41.5237 32.0015 41.5237C29.1401 41.5237 26.8205 39.2041 26.8205 36.3427C26.8205 33.4814 29.1401 31.1618 32.0015 31.1618C34.8628 31.1618 37.1824 33.4814 37.1824 36.3427Z" fill="#0201D3"></path></svg>
